<svg xmlns="http://www.w3.org/2000/svg" viewBox="0 0 48 48"><path fill="#E95B00" fill-rule="evenodd" d="M7.65 34.963c-3.13-3.611-5.056-8.27-5.147-13.37C2.295 9.917 11.775.213 23.621.002L24.075 0l.304.003c11.845.211 21.326 9.915 21.118 21.59-.091 5.1-2.017 9.759-5.147 13.37.536.327 1 .836 1.355 1.541a2.65 2.65 0 0 1-.051 2.502c-.723 1.298-1.537 3.003-2.24 4.437-.483.982-.921 1.848-1.357 2.44-.485.658-1.026 1.061-1.556 1.25-1.326.564-2.646.85-3.962.867q-.13.001-.258-.017c-1.941-.275-3.049-1.12-3.524-2.276-1.552-.613-3.133-.945-4.753-.946h-.046c-1.61.007-3.177.339-4.715.945-.475 1.158-1.583 2.002-3.524 2.277a2 2 0 0 1-.258.017c-1.316-.018-2.636-.303-3.962-.866-.53-.19-1.071-.593-1.556-1.252-.436-.591-.875-1.457-1.357-2.44-.703-1.433-1.517-3.138-2.234-4.426a2.66 2.66 0 0 1-.06-2.507c.357-.707.822-1.218 1.358-1.546m1.24.297c-3.431-3.584-5.573-8.385-5.668-13.68C3.02 10.296 12.187.922 23.633.72l.448-.003.286.003c11.446.203 20.613 9.577 20.41 20.86-.094 5.295-2.236 10.096-5.668 13.68.805.123 1.489.644 1.955 1.568.294.58.279 1.269-.039 1.83-.728 1.308-1.548 3.025-2.257 4.47-.46.937-.874 1.765-1.29 2.33-.39.528-.813.861-1.239 1.007q-1.862.795-3.71.818a1 1 0 0 1-.147-.01c-1.76-.249-2.732-1.008-3.055-2.11-1.736-.725-3.506-1.118-5.325-1.12h-.048c-1.805.009-3.56.401-5.281 1.12-.323 1.102-1.295 1.861-3.055 2.11a1 1 0 0 1-.148.01q-1.847-.023-3.71-.818c-.425-.146-.849-.479-1.238-1.007-.416-.565-.83-1.393-1.29-2.33-.709-1.445-1.53-3.162-2.254-4.464a1.94 1.94 0 0 1-.043-1.832c.467-.928 1.151-1.449 1.956-1.572" clip-rule="evenodd"/><path fill="#4E4E4E" fill-rule="evenodd" d="M23.95 43.089c-2.097.01-4.13.5-6.123 1.4q-.132 1.525-2.344 1.84-1.684-.024-3.383-.757c-.708-.214-1.29-1.401-2.007-2.864-.716-1.459-1.545-3.193-2.28-4.513a.99.99 0 0 1-.022-.934c.438-.87 1.158-1.218 1.996-1.006.217.054.4.2.504.397l.282.544c.897.294 1.811.53 2.765.646l.118-.098-.075-.047c-5.424-3.408-9.08-9.343-9.2-16.134C3.987 10.805 12.733 1.871 23.65 1.677l.437-.004q.131 0 .262.004c10.916.194 19.663 9.128 19.47 19.886-.121 6.79-3.776 12.726-9.2 16.134l-.075.047.118.098c.953-.115 1.868-.352 2.765-.646l.281-.543a.78.78 0 0 1 .504-.398c.839-.212 1.558.136 1.996 1.006a.99.99 0 0 1-.02.934c-.736 1.32-1.565 3.054-2.281 4.513-.718 1.463-1.3 2.65-2.008 2.864q-1.698.734-3.383.756-2.212-.314-2.344-1.839c-2.009-.907-4.058-1.398-6.172-1.4zm-13.088-5.123s.525 1.444.807 2.16c.366.924 1.384 3.386 1.384 3.386.24.583.724 1.024-.525 1.679.015.044.03.087.046.145.766.25 1.458.486 2.176.473.086-.045.174-.076.247-.107l-3.422-7.038c-.36-.74-.457-.779-.713-.698m26.276 0s-.525 1.444-.808 2.16c-.365.924-1.384 3.386-1.384 3.386-.239.583-.724 1.024.526 1.679a2 2 0 0 0-.047.145c-.766.25-1.458.486-2.175.473-.087-.045-.174-.076-.248-.107l3.423-7.038c.36-.74.456-.779.713-.698m-4.65-.792c-2.404-1.301-5.437-1.814-8.488-1.729l-.104-.002c-4.371-.104-8.692 1.027-11.164 3.95-.047.383 2.2 4.648 2.67 5.266.209.2.283.229.46.254 2.072-1.752 5.099-2.495 8.138-2.453h.071c3.015-.03 6.01.714 8.067 2.453.177-.025.25-.053.459-.254.47-.618 2.717-4.883 2.67-5.266-.75-.89-1.673-1.612-2.716-2.185a1 1 0 0 1-.104.113q-.207.195-.456.359-.25.165-.512.266l-.434.178-.445.134a5 5 0 0 1-.448.116l-.031.008-.162.24q-.106.17-.207.34l-.11.2q-.12.209-.213.433-.093.225-.172.448l-.001.002q-.102.282-.08.446t.186.224q.06.021.111.003a.3.3 0 0 0 .095-.055.5.5 0 0 0 .082-.086q.038-.048.063-.089.048-.067.073-.052.025.014.004.074-.058.13-.155.297a2 2 0 0 1-.218.306 1 1 0 0 1-.252.214.3.3 0 0 1-.26.03.32.32 0 0 1-.191-.156.54.54 0 0 1-.054-.235q0-.129.035-.259.037-.13.07-.224h.001q.06-.148.133-.307.075-.161.143-.317.035-.065.032-.09-.003-.021-.093.04a4 4 0 0 1-.484.312 2.5 2.5 0 0 1-.507.206 3 3 0 0 1-.815.114 4 4 0 0 1-.84-.092 6 6 0 0 1-.662-.18 6 6 0 0 1-.684-.276 2 2 0 0 1-.271-.154.63.63 0 0 1-.276-.447 1 1 0 0 1 .03-.347q.033-.129.095-.261.058-.132.13-.252.066-.106.104-.093.035.014.001.14a.6.6 0 0 0-.017.22.4.4 0 0 0 .084.187q.177.21.425.326.247.117.499.213a6 6 0 0 0 2.012.387q.224.007.438-.021a1.7 1.7 0 0 0 .42-.112 1.5 1.5 0 0 0 .525-.34c.14-.147.176-.175.292-.369a.5.5 0 0 1 .082-.119l.298-.304q.076-.077.159-.15-.015-.011.06-.088.098-.083.194-.17a.8.8 0 0 1 .216-.142q.1-.042.266-.106c.098-.037.58-.208.724-.265q.432-.174.856-.385zm3.16 7.644c-.167-.08-.416-.215-.41-.507.369-.11.837-.13 1.018.456-.18.132-.475.113-.608.05m-23.297 0c.168-.08.416-.215.41-.507-.368-.11-.837-.13-1.017.456.18.132.474.113.607.05M9.667 36.7c-.848-.267-1.485.397-1.315 1.073l3.182 6.55c.318-.388.631-.428.942-.447zm28.665 0c.848-.267 1.486.397 1.316 1.073l-3.183 6.55c-.317-.388-.63-.428-.941-.447zm-8.712 5.91q.027-.075.236-.263t.248-.174q.13.046.205.21.075.165.032.284-.039.11-.21.235-.174.126-.238.103-.03-.01-.16-.192l-.091-.123q-.034-.045-.022-.08m-12.168.082q-.005-.027.1-.291.105-.265.137-.27.089-.014.226.076.138.096.154.195.02.114-.074.31-.092.19-.144.2-.026.003-.086-.032l-.118-.075-.13-.052q-.06-.025-.065-.061m-.485-.591q-.006-.042.109-.327t.146-.29q.068-.01.214.063.14.073.2.15.055-.126.115-.254.084-.18.105-.182.094-.015.248.079.156.103.173.212.02.125-.092.33-.11.187-.167.197-.042.006-.143-.057a1.6 1.6 0 0 0-.235-.134q-.145.402-.265.42a1 1 0 0 1-.213-.094q-.192-.097-.195-.113m14.431-3.185.013-.012a.1.1 0 0 1 .042-.03q.015-.005.014.016a.3.3 0 0 1-.043.086q-.243.406-.454.837c-.38.77-.104.205-.3.688q-.102.283-.08.448.023.165.186.223.06.022.111.004a.3.3 0 0 0 .096-.055.6.6 0 0 0 .082-.086 1 1 0 0 0 .063-.09q.046-.066.072-.052t.004.075q-.057.13-.155.297a2 2 0 0 1-.217.305q-.12.139-.252.216a.3.3 0 0 1-.261.029.32.32 0 0 1-.19-.156.5.5 0 0 1-.054-.235 1 1 0 0 1 .035-.259 3 3 0 0 1 .07-.224l.008-.008q.087-.236.27-.595c.274-.543-.134.239.404-.785q.07-.132.17-.253l.141-.16zm-11.488.45q.446-.059.864-.151.42-.093.825-.264.362-.154.696-.358.334-.206.64-.435.43-.324.805-.68.374-.355.766-.716.115-.11.235-.207a2 2 0 0 1 .254-.185q.126-.078.18-.047.053.03.004.157l-.07.198q-.038.101-.089.19-.024.046-.054.075c-.03.029-.047.038-.08.058a1 1 0 0 0-.195.153l-.32.302q-.229.218-.455.443t-.462.444q-.236.218-.478.425-.243.206-.504.386a5.8 5.8 0 0 1-2.44.978l-.592.08q-.247.031-.42.022a4 4 0 0 1-.376-.042 2 2 0 0 1-.47-.134.2.2 0 0 0-.073-.015.1.1 0 0 0-.06.025 1 1 0 0 0-.072.086 2 2 0 0 0-.082.125l-.1.17a.74.74 0 0 1-.284.262.6.6 0 0 1-.379.057 3 3 0 0 1-.21-.042.45.45 0 0 0-.212.008 1 1 0 0 0-.208.075.8.8 0 0 0-.193.137q-.14.129-.184.117-.044-.01.046-.18.103-.198.241-.385a2.1 2.1 0 0 1 .507-.484.5.5 0 0 1 .226-.075.6.6 0 0 1 .201.021q.102.027.205.037.114.015.201-.026a.45.45 0 0 0 .155-.12q.078-.082.14-.172l.12-.18a.54.54 0 0 1 .167-.162q.079-.04.24-.008.363.065.678.077.315.01.666-.04m10.27-.476q.025-.069.234-.258.209-.187.248-.174.13.047.205.212t.032.283q-.039.11-.21.232t-.236.1q-.03-.01-.16-.192a2 2 0 0 1-.094-.118q-.031-.05-.02-.085m2.361-2.308c.406.173 1.5.826 1.394.794l.261-.165c5.292-3.29 8.865-9.056 8.982-15.66.187-10.41-8.277-19.053-18.84-19.241L24 2.307q-.17 0-.338.003c-10.563.188-19.026 8.831-18.84 19.242.118 6.603 3.69 12.37 8.982 15.659l.236.149c-.011-.036 1.056-.65 1.26-.7a3 3 0 0 1-.445-.13c-.51-.194-.96-.529-1.33-.925a4.3 4.3 0 0 1-.452-.569l-.077-.125a3 3 0 0 1-.503-.206 3.5 3.5 0 0 1-1.11-.948 5 5 0 0 1-.362-.535 4 4 0 0 1-.147-.285l-.079-.18.097-.019a3.2 3.2 0 0 1-.746-.474 3.5 3.5 0 0 1-.863-1.177 5 5 0 0 1-.229-.604 4 4 0 0 1-.078-.31l-.035-.193.227.008a3.4 3.4 0 0 1-.932-.859 3.5 3.5 0 0 1-.566-1.344 5 5 0 0 1-.082-.64 3 3 0 0 1-.003-.32l.011-.196.177.048q.146.042.288.097.125.048.248.105l-.094-.064a4 4 0 0 1-.195-.143 3.5 3.5 0 0 1-.955-1.105 3.5 3.5 0 0 1-.37-1.411 4.5 4.5 0 0 1 .01-.645 4 4 0 0 1 .04-.318l.04-.192.168.073q.14.062.271.137c.11.06.307.184.3.177a4 4 0 0 1-.17-.173 3.5 3.5 0 0 1-.767-1.243 3.5 3.5 0 0 1-.141-1.45 4.5 4.5 0 0 1 .112-.636q.038-.156.092-.307l.068-.183.155.098q.127.083.246.177a5 5 0 0 1 .433.391l.006-.012a4.5 4.5 0 0 1-.343-.515 3.5 3.5 0 0 1-.459-1.385 3.5 3.5 0 0 1 .2-1.444 4.3 4.3 0 0 1 .415-.871l.109-.163.128.132q.105.109.198.23l.025.03a3.3 3.3 0 0 1-.145-1.186c.034-.49.194-.964.427-1.395q.057-.106.12-.21a4.3 4.3 0 0 1 .43-.583l.133-.143.106.15q.086.125.158.258l.002.003a3.3 3.3 0 0 1 .123-1.107c.14-.47.4-.898.722-1.268q.079-.09.163-.179a5 5 0 0 1 .294-.277q.123-.106.253-.198l.161-.111.094.229a3.2 3.2 0 0 1 .258-.839c.21-.444.534-.826.908-1.143a4.5 4.5 0 0 1 .802-.539l.177-.084.043.177q.034.149.054.298a5 5 0 0 1 .04.582l.027-.011a2.2 2.2 0 0 1 .42-.676 2.45 2.45 0 0 1 .85-.58q.234-.102.481-.159l.202-.041q0 .096-.004.192-.004.109-.018.218-.016.135-.046.269a2.44 2.44 0 0 1-.489 1.044 2.3 2.3 0 0 1-.59.491l-.004.012.158-.014q.12-.008.244-.009h.066q.177 0 .353.017l.194.024-.063.185q-.057.15-.125.295a4.5 4.5 0 0 1-.306.543 3.5 3.5 0 0 1-1.045 1.051q-.234.145-.491.247a4 4 0 0 1-.187.597q-.045.111-.094.221c-.215.47-.517.906-.918 1.236q-.212.176-.451.309l-.004.06a4.5 4.5 0 0 1-.088.647c-.107.505-.306.996-.625 1.406q-.191.244-.426.446.017.103.027.208a4 4 0 0 1 .017.652c-.026.516-.144 1.032-.393 1.487a3 3 0 0 1-.377.541l.05.106q.062.139.111.282a4 4 0 0 1 .167.63c.095.508.1 1.038-.037 1.538a3 3 0 0 1-.25.628l.06.087q.083.127.154.26a5 5 0 0 1 .265.597c.174.486.263 1.009.208 1.524-.05.469-.216.92-.446 1.328l-.132.22q.03.027.058.056l.04-.087a4.4 4.4 0 0 1 .353-.632l.114-.158.124.136q.1.113.19.236a4.5 4.5 0 0 1 .346.553c.241.457.403.961.42 1.48q.007.202-.013.403l.012-.029.151.103q.125.088.24.187a4.4 4.4 0 0 1 .466.458c.341.388.616.841.754 1.34q.037.14.063.281.123.051.241.113a4.5 4.5 0 0 1 .56.339c.412.294.778.664 1.027 1.108q.077.138.14.283a4.3 4.3 0 0 1 .782.318c.458.24.878.564 1.187.98.286.385.472.837.58 1.3a5 5 0 0 1 .065.338l.01-.003c1.762-.633 3.51-.91 6.115-.914q.187-.007.376-.01l.376.01c2.92.004 4.763.353 6.755 1.158a3 3 0 0 1-.061-.243 2.4 2.4 0 0 1 .014-1.122c.1-.365.305-.694.559-.973q.17-.188.37-.344l.167-.12.077.175a2.6 2.6 0 0 1 .144.469q.049.219.06.443a2 2 0 0 1 .144-.075 2.4 2.4 0 0 1 .021-1.089c.1-.364.305-.694.558-.973a3 3 0 0 1 .372-.344l.166-.12.076.176q.042.1.074.205a3 3 0 0 1 .131.706l.022-.012a2.4 2.4 0 0 1 .028-1.051c.1-.365.305-.695.559-.974q.17-.188.37-.343l.167-.121.104.244q.008-.105.03-.209c.072-.371.253-.715.485-1.012q.157-.2.345-.369l.157-.132.113.217q-.002-.075.001-.15a2.4 2.4 0 0 1 .334-1.071q.125-.221.287-.416l.137-.154.113.156q.062.088.117.184.068.118.125.242.095.203.156.42.04-.038.082-.072a2.4 2.4 0 0 1-.376-.95 2.4 2.4 0 0 1 .124-1.115q.08-.24.204-.463l.104-.177.14.132q.08.076.15.159.09.103.17.213.13.182.232.383l.036-.047a2.4 2.4 0 0 1-.504-.91 2.4 2.4 0 0 1-.016-1.12 3 3 0 0 1 .144-.485l.081-.188.156.113q.087.065.168.139a3 3 0 0 1 .26.263 2.2 2.2 0 0 1-.28-.445 2.4 2.4 0 0 1-.199-1.104q.008-.253.063-.5l.049-.2.172.086q.088.045.172.099a2 2 0 0 1-.095-.129 2.4 2.4 0 0 1-.374-1.057 3 3 0 0 1-.019-.504l.017-.205q.091.03.184.057.104.035.204.078a3 3 0 0 1 .622.362l.014-.063a2.3 2.3 0 0 1-.669-.533 2.4 2.4 0 0 1-.482-1.014 3 3 0 0 1-.071-.5l-.005-.204.189.037q.086.02.17.044l-.043-.039a2.4 2.4 0 0 1-.598-.95 3 3 0 0 1-.129-.488l-.028-.203.191.016a2 2 0 0 1 .262.04l-.073-.05a2.4 2.4 0 0 1-.714-.866 3 3 0 0 1-.19-.468l-.055-.198.205-.009.162.001-.067-.028a2.4 2.4 0 0 1-.872-.709 3 3 0 0 1-.28-.42l-.092-.184.199-.05.212-.046a2 2 0 0 1-.149-.059 2.5 2.5 0 0 1-.833-.631 3 3 0 0 1-.3-.406l-.103-.179.197-.06.081-.02a2.45 2.45 0 0 1-.854-.66 3 3 0 0 1-.294-.412l-.099-.18.148-.042a2.4 2.4 0 0 1-.866-.697 3 3 0 0 1-.282-.42l-.094-.182.02-.005a2.6 2.6 0 0 1-.683-.524 3 3 0 0 1-.314-.396l-.108-.175.195-.066q.152-.048.31-.076.238-.046.481-.052h.123a3 3 0 0 1-.141-.375 3 3 0 0 1-.103-.494l-.019-.204.191.025q.109.016.214.042.134.033.263.077c.174.06.345.135.504.229q.009-.271.069-.535.055-.248.153-.482l.086-.187.153.117q.086.067.166.141.1.093.19.195c.267.298.48.653.57 1.044a.3.3 0 0 0 .022.056l.048-.097.094-.168.143.127q.08.074.155.155.092.1.175.21c.22.288.392.621.466.978l.101-.196.148.123q.082.072.158.15.095.099.18.205c.196.243.357.518.452.816l.146.118a2.5 2.5 0 0 1 .345.348c.256.307.456.67.534 1.063l.006.033.04-.07.142.129q.081.074.153.155.092.101.174.21c.24.32.421.691.479 1.088.036.25.023.503-.024.75v-.002a3 3 0 0 1 .211-.296l.135-.155.115.154q.063.088.119.182.07.117.128.24c.172.36.276.76.254 1.161q-.01.15-.038.295l.151-.137.095.167q.052.096.095.197.054.125.097.254a2.4 2.4 0 0 1 .103 1.184q-.031.165-.088.321l.078-.06.157-.11.074.177q.04.102.071.206.039.13.066.264c.08.392.083.805-.036 1.188a2.2 2.2 0 0 1-.218.476l.128-.079.168-.094.055.184q.03.105.05.212.025.135.037.27c.038.397 0 .808-.16 1.177a2.3 2.3 0 0 1-.4.615l.006-.004q.172-.098.357-.171l.193-.071.025.19q.012.108.014.218.004.135-.005.272a2.4 2.4 0 0 1-.347 1.136 2.3 2.3 0 0 1-.513.56q.164-.06.335-.096l.202-.038-.006.191a3 3 0 0 1-.071.485c-.092.389-.26.766-.53 1.065-.243.272-.56.472-.896.61a3 3 0 0 1-.248.09l-.002.092q.243-.121.506-.191.245-.068.498-.09l.206-.013-.031.19a3 3 0 0 1-.131.472 2.4 2.4 0 0 1-.659.99c-.276.24-.615.399-.966.494q-.163.045-.33.07-.014.078-.032.156a2.8 2.8 0 0 1 .72-.1h.071l.261.016.192.024-.071.193q-.094.235-.229.45c-.2.32-.46.607-.785.804a2.4 2.4 0 0 1-1.077.323 3 3 0 0 1-.193.009l-.018.046h.001q.146-.018.292-.02l.19.003q.157.007.315.033l.256.053.185.052q-.047.09-.098.18a3 3 0 0 1-.292.413 2.4 2.4 0 0 1-.893.682c-.269.113-.56.164-.85.17a3 3 0 0 1 .669.135l.193.07-.111.172a3 3 0 0 1-.321.39 2.4 2.4 0 0 1-.94.616 2 2 0 0 1-.48.1c-.004-.001.15.038.23.065l.195.07-.112.173q-.143.21-.32.39c-.265.27-.582.494-.941.615-.36.122-.749.136-1.122.083a3 3 0 0 1-.235-.043q-.018.043-.04.085l.16-.003a3 3 0 0 1 .874.144l.194.07-.111.173q-.143.21-.322.39a2.4 2.4 0 0 1-.94.615q-.266.089-.548.106m-16.513-.266a3.3 3.3 0 0 1-1-.482 3.4 3.4 0 0 1-.864-.944q-.377.028-.744.121l-.009.002a4 4 0 0 0 .52.586c.325.303.705.554 1.129.695q.349.114.715.14c-.02.008.15-.07.253-.118m15.84-.069q.096.02.193.031c.329.04.67.022.983-.094.262-.098.497-.26.7-.45q.067-.064.13-.131l.128-.15a2.6 2.6 0 0 0-.61-.079h-.031q-.155 0-.308.024a2 2 0 0 1-.18.223c-.25.266-.57.46-.91.591zm-14.846-.353a4 4 0 0 0-.425-.724 3 3 0 0 0-.584-.596 3 3 0 0 0-.857-.44 4 4 0 0 0-.482-.125 4 4 0 0 0-.642-.071h-.009l.003.008q.106.294.256.569.117.218.263.418c.189.26.414.495.676.682.242.171.512.3.793.393q.22.072.447.117l.179-.076a15 15 0 0 1-1.135-.85 8 8 0 0 1-.567-.507l.001-.001c.234.103.457.222.677.346a16 16 0 0 1 1.275.808l.091.064zm14.853.04.032-.012c.307-.125.595-.309.81-.563.18-.214.305-.47.388-.735q.027-.089.049-.177l.038-.194-.189.06a3 3 0 0 0-.171.067 2.1 2.1 0 0 0-.725.503 2.1 2.1 0 0 0-.432.805q.123-.144.254-.28a7 7 0 0 1 .36-.35q.187-.172.4-.319l.001.001a3.5 3.5 0 0 1-.25.444 7 7 0 0 1-.565.75m.3-1.506a2.4 2.4 0 0 0-.07-.62l-.051-.19-.143.138q-.063.066-.122.136c-.19.227-.345.488-.423.774a2.1 2.1 0 0 0-.03.88c.01.054.033.155.033.155l.004-.015c.097-.364.264-.715.517-.997q.128-.141.28-.257zm-15 1.115a4 4 0 0 0-.16-.56 3 3 0 0 0-.394-.734 3 3 0 0 0-.699-.663 4 4 0 0 0-.447-.263 4 4 0 0 0-.578-.238l-.008-.003v.009a4 4 0 0 0 .103.692 3.5 3.5 0 0 1 1.029.44q.111.074.215.155c.198.156.375.338.53.535q.234.295.408.63m16.235-.81q.096.02.193.031c.329.04.67.022.983-.094.262-.098.497-.26.7-.45q.066-.063.13-.131l.128-.15a2.6 2.6 0 0 0-.611-.079h-.03a2 2 0 0 0-.308.024 2 2 0 0 1-.18.223 2.44 2.44 0 0 1-1.005.627m-20.004-.018c.085-.02.274-.057.29-.06a3.4 3.4 0 0 1-.988-.643 3.4 3.4 0 0 1-.726-1.054 4 4 0 0 0-.73.016l-.032.003.041.076c.18.315.398.61.656.866.204.203.434.38.688.516.251.134.523.225.8.28m1.005-1.04a3 3 0 0 0-.63-.85 3 3 0 0 0-.755-.501 4 4 0 0 0-1.02-.322l-.033-.006.002.008q.066.306.175.599.087.232.203.45c.147.276.332.533.557.75a3 3 0 0 0 .773.526q.113.054.23.101a5 5 0 0 1-.122-.28 7 7 0 0 1-.086-.247q-.224-.223-.437-.455a8 8 0 0 1-.491-.58v-.001c.218.135.423.283.623.436q.222.168.436.345l.112-.002q.232.003.463.03m19.05.728c.302-.125.585-.307.797-.558.18-.213.306-.469.389-.735q.027-.087.048-.177l.04-.194-.19.06q-.087.03-.171.067a2.1 2.1 0 0 0-.725.503c-.148.164-.26.356-.345.56l.158-.027.008-.008a6 6 0 0 1 .362-.35q.186-.171.399-.318h.001a4 4 0 0 1-.25.444 6.5 6.5 0 0 1-.512.69zm-.501-.383c.1-.309.254-.602.472-.845q.13-.144.284-.261a2.4 2.4 0 0 0-.068-.62l-.053-.19-.142.137q-.064.067-.123.138c-.19.226-.344.487-.422.773a2.1 2.1 0 0 0-.03.88l.003.016zM14.591 32.84a3 3 0 0 0-.129-.249 3 3 0 0 0-.597-.714 4 4 0 0 0-.91-.605l-.009-.003v.009q-.024.322.001.644l.005.055c.41.168.795.404 1.109.718.231.23.421.5.574.788l-.03-.26a8 8 0 0 1-.014-.383m20.287.49q.075.013.15.023c.328.04.67.022.982-.095a2.1 2.1 0 0 0 .7-.45q.067-.063.13-.13l.128-.15a2.6 2.6 0 0 0-.61-.079h-.031q-.155 0-.307.023a2 2 0 0 1-.181.224c-.25.266-.57.46-.91.59q-.021.01-.042.016zm.103-.937q.134-.135.275-.261.186-.171.4-.318h.001a4 4 0 0 1-.25.445 7 7 0 0 1-.39.54q-.012.073-.029.147c.264-.122.507-.29.695-.513.18-.213.306-.469.388-.734q.027-.089.049-.178l.038-.193-.189.06q-.087.03-.17.067a2.1 2.1 0 0 0-.726.503 2 2 0 0 0-.308.475zm-23.407.27a3.5 3.5 0 0 1-1.062-1.024 3.4 3.4 0 0 1-.465-1.191 4 4 0 0 0-.714-.151l-.033-.004.003.008a4 4 0 0 0 .434 1.027c.162.267.36.514.597.718.232.199.498.355.778.475.131.055.409.143.409.143zm22.833-.122c.1-.284.247-.553.45-.777q.128-.144.284-.262a2.4 2.4 0 0 0-.069-.62l-.052-.19-.142.138a3 3 0 0 0-.123.137 2.1 2.1 0 0 0-.423.773 2.05 2.05 0 0 0-.036.844zm-22.147-.782a3 3 0 0 0-.373-.941 3 3 0 0 0-.641-.719 4 4 0 0 0-.423-.3 4 4 0 0 0-.556-.286l-.007-.003v.008a4 4 0 0 0 .126 1.107c.083.31.208.611.385.88.168.253.38.475.616.666.127.103.398.273.398.273a4 4 0 0 1-.104-.407l-.11-.17a15 15 0 0 1-.386-.649 8 8 0 0 1-.344-.676v-.001c.181.181.347.372.507.566q.232.282.45.575l-.171-.014.183.015a3 3 0 0 1 .45.076m24.087.033-.026.08.056.002c.33.017.67-.026.972-.165.255-.116.478-.294.666-.5q.062-.067.12-.139l.118-.158a3 3 0 0 0-.409-.04h-.071a2.3 2.3 0 0 0-.471.052q-.075.124-.164.237a2.4 2.4 0 0 1-.787.617zm-23.689-.576a3 3 0 0 0-.087-.483 3 3 0 0 0-.426-.888 4.2 4.2 0 0 0-.761-.817l-.007-.005q0 .005-.003.008a4 4 0 0 0-.154.682c.36.258.68.575.914.952.223.36.363.764.44 1.177l.077.025-.005-.096a5 5 0 0 1 .012-.555m23.814-.057-.029.232c.2-.129.38-.288.52-.48a2.1 2.1 0 0 0 .334-.762q.021-.09.036-.18l.024-.196-.184.073a3 3 0 0 0-.166.08 2.1 2.1 0 0 0-.686.554 2 2 0 0 0-.305.586q.08-.024.158-.043l.007-.007q.16-.193.335-.376c.117-.12.239-.238.375-.345h.001a4 4 0 0 1-.217.461q-.095.174-.2.34zm-.794.03c.078-.318.21-.626.412-.887q.117-.15.26-.277l.005-.004a2.3 2.3 0 0 0-.114-.613l-.066-.186-.001.001a3 3 0 0 0-.243.292c-.173.24-.308.511-.365.802a2.1 2.1 0 0 0 .04.905zm-10.052-3.15c1.29.47 2.67.683 4.06.615a9.45 9.45 0 0 1-4.868.263l-.013.322L24 30.345l-.808-1.108-.013-.322a9.45 9.45 0 0 1-4.867-.263 10.4 10.4 0 0 0 4.059-.616 9.4 9.4 0 0 1-4.608-5.44 9.41 9.41 0 0 1 2.828-10.067c-3.142 4.636-2.011 10.898 2.497 14.161l-.313-7.728v-6.08c.488-.233.91-.586 1.225-1.025.314.439.736.792 1.224 1.026v6.08l-.313 7.727c4.508-3.263 5.64-9.525 2.497-14.161a9.41 9.41 0 0 1 2.828 10.066 9.4 9.4 0 0 1-4.608 5.442m11.943 2.223q.068-.003.133-.01c.33-.03.659-.123.939-.304.235-.152.429-.36.585-.59q.053-.077.099-.156l.093-.174h-.083q-.082 0-.165.005c-.235.015-.47.06-.69.145l-.003.006a2 2 0 0 1-.126.252 2.44 2.44 0 0 1-.759.774l-.012.007zM8.565 27.34q-.037-.024-.076-.044a4 4 0 0 0-.606-.278l-.008-.003v.009a4 4 0 0 0 .183 1.099c.096.297.23.583.414.837.179.247.401.46.646.642q.22.162.46.29l-.054-.056a3.5 3.5 0 0 1-.785-1.23 3.4 3.4 0 0 1-.174-1.267m1.843 1.914a3.1 3.1 0 0 0-.166-1.205 3 3 0 0 0-.459-.81 4 4 0 0 0-.786-.759l-.007-.004-.002.008q-.079.302-.113.613a4 4 0 0 0-.021.493c.007.312.056.624.16.919s.262.568.453.816a4 4 0 0 0 .51.543l-.005-.105a16 16 0 0 1-.48-1.411 8 8 0 0 1-.177-.738h.001c.134.218.25.442.36.668q.167.34.314.686l.065.157.123.04q.116.039.23.09m27.251.327-.01.225c.2-.166.374-.364.495-.594a2.1 2.1 0 0 0 .22-.802q.008-.09.009-.183l-.005-.197-.171.098a3 3 0 0 0-.153.104c-.24.173-.453.389-.599.647a2 2 0 0 0-.216.63l.136-.046.02-.034a7 7 0 0 1 .277-.42c.098-.137.202-.27.321-.396h.001c-.037.17-.09.33-.148.488q-.08.22-.178.432zm-.743.064a2.35 2.35 0 0 1 .275-.908q.096-.17.222-.317a2.4 2.4 0 0 0-.202-.59l-.092-.174-.11.164a3 3 0 0 0-.09.16 2.1 2.1 0 0 0-.244.846c-.014.295.051.589.16.861zm-26.177-.232q.07-.189.12-.384c.07-.279.106-.567.093-.855a3 3 0 0 0-.198-.914 4 4 0 0 0-.543-.973l-.02-.026-.004.007a4 4 0 0 0-.31.628c.29.334.528.717.667 1.138.144.435.182.899.147 1.354zm27.999-1.05q.096-.02.19-.049a2.1 2.1 0 0 0 .864-.476 2.1 2.1 0 0 0 .463-.69q.036-.085.067-.171l.058-.189-.194.04q-.09.02-.177.049c-.182.057-.36.135-.522.236a2 2 0 0 1-.077.277c-.123.343-.34.648-.598.903zm-.32-.68.04-.115q.088-.236.193-.465a4 4 0 0 1 .24-.45h.001a4 4 0 0 1-.053.508 7 7 0 0 1-.184.797l.005.074c.224-.233.409-.51.502-.821a2.1 2.1 0 0 0 .064-.828 3 3 0 0 0-.026-.182l-.042-.193-.15.13a2 2 0 0 0-.13.13 2.1 2.1 0 0 0-.465.748c-.076.229-.101.47-.091.711l.105-.047zm-.377.2a2.3 2.3 0 0 1 .096-.96q.062-.182.157-.352a2.4 2.4 0 0 0-.31-.54l-.124-.155-.076.183q-.03.085-.058.174a2.1 2.1 0 0 0-.079.877c.042.293.163.57.323.819zm-7.608-1.064-.017.023c3.79-2.184 5.086-7.017 2.895-10.794a7.92 7.92 0 0 0-4.937-3.712c4.58 3.432 5.502 9.917 2.059 14.483M14.688 16.048c-2.19 3.777-.894 8.61 2.896 10.794l-.017-.023c-3.444-4.566-2.522-11.05 2.058-14.483a7.92 7.92 0 0 0-4.937 3.711m-5.7 10.075c.059.036.162.109.158.106.123-.48.16-.99.052-1.476a3 3 0 0 0-.322-.82 4 4 0 0 0-.666-.865l-.023-.023-.004.008q-.12.289-.198.591-.06.24-.091.485a3 3 0 0 0 .03.933c.061.306.179.6.333.871a4 4 0 0 0 .42.599l.02-.086a15 15 0 0 1-.277-1.473c-.034-.25-.062-.5-.072-.755h.001c.101.234.185.472.263.712a15 15 0 0 1 .323 1.16zM7.645 23.84a4 4 0 0 0-.609-.402l-.029-.016v.009q-.038.32-.023.644.01.236.049.47c.054.316.151.626.304.91.14.26.326.495.536.702q.196.192.416.353l-.047-.064a3.5 3.5 0 0 1-.603-1.329 3.4 3.4 0 0 1 .006-1.277m31.892 2.517q.092-.033.182-.072c.304-.132.588-.321.797-.58.176-.217.296-.475.373-.742q.026-.09.045-.179l.034-.194-.187.063a2.3 2.3 0 0 0-.658.37q-.01.144-.042.285a2.4 2.4 0 0 1-.48.97zm-30.122-.004q.152-.25.263-.52c.109-.265.185-.546.213-.832.03-.312.002-.628-.067-.933a4 4 0 0 0-.401-1.04L9.406 23l-.005.006a4 4 0 0 0-.357.512l-.038.066c.241.372.422.784.5 1.22.085.472.051.958-.059 1.423q-.014.063-.032.126m29.366-.401a2.3 2.3 0 0 1-.021-.947 2 2 0 0 1 .112-.37 2.4 2.4 0 0 0-.376-.498L38.353 24l-.052.19q-.023.09-.036.181c-.048.291-.048.594.031.88.078.283.231.542.418.766zm.673.036c.176-.247.309-.527.36-.827a2.1 2.1 0 0 0-.042-.83 3 3 0 0 0-.049-.176l-.065-.187-.132.147q-.06.07-.114.145c-.173.24-.308.51-.366.801a2 2 0 0 0-.01.673l.112-.08.012-.051c.039-.162.08-.324.132-.485q.073-.241.182-.476h.001c.018.173.017.342.011.51a7 7 0 0 1-.066.705zm.745-1.617q.085-.047.168-.1a2.1 2.1 0 0 0 .691-.702 2.1 2.1 0 0 0 .246-.794q.01-.09.015-.183l.002-.198-.174.094a2.3 2.3 0 0 0-.588.473q.012.142.005.286a2.44 2.44 0 0 1-.365 1.124m-1.327-.249q.08.099.15.204l.018-.03a2 2 0 0 1-.168-.174m.844-.598q.014-.167.038-.335a4 4 0 0 1 .102-.5c.046.167.074.335.095.502a6.5 6.5 0 0 1 .052.883l.01.033.006-.01c.153-.292.256-.618.257-.95 0-.28-.069-.556-.177-.812a3 3 0 0 0-.077-.167l-.095-.173-.107.167a3 3 0 0 0-.087.161 2.1 2.1 0 0 0-.23.85q-.008.249.051.49zm-.396.384a2.2 2.2 0 0 1-.11-.744q.008-.195.05-.383a2.3 2.3 0 0 0-.452-.43l-.163-.112-.02.196a3 3 0 0 0-.006.184c0 .295.05.593.175.863.1.214.243.404.411.57zM8.781 23.12q.061-.072.12-.148c.27-.352.484-.754.584-1.189.066-.287.082-.585.061-.878a4 4 0 0 0-.229-1.066l-.011-.031-.007.006q-.233.207-.433.449l-.049.06c.18.404.293.84.3 1.283a3.5 3.5 0 0 1-.336 1.514M6.87 19.847l-.002.008a4 4 0 0 0-.151 1.104c.003.312.047.625.147.921s.253.573.44.823a4 4 0 0 0 .338.392l-.034-.067a3.5 3.5 0 0 1-.384-1.407c-.017-.43.065-.858.209-1.261a4 4 0 0 0-.537-.493zm1.657 3.13q.117-.263.191-.54c.075-.276.116-.564.108-.851a3 3 0 0 0-.183-.918 4.1 4.1 0 0 0-.542-1.001l-.005-.007-.005.007a4.2 4.2 0 0 0-.463 1.04 3 3 0 0 0-.112.929c.015.303.084.602.19.887q.084.228.198.444l.104-.227.025-.048q-.008-.168-.013-.337a15 15 0 0 1 0-.754 8 8 0 0 1 .048-.758h.001c.063.247.108.496.147.745A15 15 0 0 1 8.35 22.8zm31.934-.629q.078-.06.15-.126a2.1 2.1 0 0 0 .57-.803 2.1 2.1 0 0 0 .115-.822 3 3 0 0 0-.015-.183l-.029-.196-.158.12q-.07.059-.138.121c-.139.13-.265.278-.367.44q.037.138.052.282a2.4 2.4 0 0 1-.18 1.167m-.923-.28a2.2 2.2 0 0 1-.246-.754 2 2 0 0 1-.013-.386 2.4 2.4 0 0 0-.515-.352l-.18-.085.012.197q.009.092.024.182c.048.291.146.578.312.824.14.207.324.38.53.52zm.642-.214.089.16a2 2 0 0 0 .071-.886 2.1 2.1 0 0 0-.304-.774 3 3 0 0 0-.103-.152l-.122-.156-.078.182a3 3 0 0 0-.06.173c-.088.282-.13.582-.092.876.022.174.072.342.141.502l.129-.16a6 6 0 0 1-.018-.367 4 4 0 0 1 .02-.509c.072.158.126.318.174.48a6 6 0 0 1 .153.63m.302-1.557q.07-.068.136-.14c.22-.246.4-.537.483-.858.07-.27.07-.556.029-.83q-.013-.091-.034-.181l-.049-.191-.144.135a2.3 2.3 0 0 0-.444.61q.05.135.08.275a2.4 2.4 0 0 1-.057 1.18m-.99-.25a2.2 2.2 0 0 1-.28-.658 2 2 0 0 1-.053-.376v-.006a2.4 2.4 0 0 0-.55-.298l-.187-.066.033.195q.018.09.042.18c.078.284.205.559.396.786.147.176.329.319.527.433zm.104-1.97a3 3 0 0 0-.101.365 2.1 2.1 0 0 0 0 .88q.053.215.153.41l.1-.166.047.044a5 5 0 0 1-.052-.338 4 4 0 0 1-.033-.509c.088.15.159.303.223.459a6.4 6.4 0 0 1 .296.89l.007-.033a2.1 2.1 0 0 0-.001-.984 2.1 2.1 0 0 0-.384-.737 3 3 0 0 0-.118-.141l-.137-.143zM9.908 16.72s-.252.177-.385.25a4 4 0 0 1-.21.11c.076.428.084.87-.01 1.296a3.5 3.5 0 0 1-.678 1.396 3 3 0 0 0 .151-.117 3.1 3.1 0 0 0 .844-1.022c.13-.264.215-.55.263-.84.058-.354.063-.717.025-1.073m-1.507 2.866.003-.004c.308-.403.547-.87.635-1.371a3 3 0 0 0 .014-.904 4 4 0 0 0-.28-1.03l-.014-.03-.006.006a4.2 4.2 0 0 0-.68.884c-.152.273-.27.566-.33.873s-.064.622-.026.932a4 4 0 0 0 .119.584l.134-.199q.043-.238.092-.476.076-.368.174-.734c.064-.243.135-.486.223-.725h.001a8 8 0 0 1-.03.758 15 15 0 0 1-.157 1.262zm-.877-3.44-.005.008a4 4 0 0 0-.26.566 4 4 0 0 0-.142.474c-.07.303-.099.618-.07.93.028.31.114.615.238.901a4 4 0 0 0 .236.457l.003.005-.019-.076a3.44 3.44 0 0 1-.036-1.515 3.4 3.4 0 0 1 .483-1.121 4 4 0 0 0-.423-.622zm31.714 2.112a2.1 2.1 0 0 1-.439-.97l-.001-.007a2.4 2.4 0 0 0-.58-.231l-.194-.044.055.19q.03.087.063.172c.11.274.27.532.486.736.164.155.358.274.565.364zm1.026.15q.06-.076.118-.156c.19-.27.334-.58.379-.908.036-.277.005-.56-.069-.828a3 3 0 0 0-.054-.176l-.072-.184-.127.152a2.3 2.3 0 0 0-.37.657q.066.127.113.264a2.44 2.44 0 0 1 .081 1.178m-.26-.324a2 2 0 0 0-.127-.841 2.1 2.1 0 0 0-.467-.688 3 3 0 0 0-.135-.126l-.152-.125-.037.194q-.014.09-.02.182c-.024.295.001.596.103.875q.07.188.177.354l.056-.131.082-.174-.027.056-.048-.184a4 4 0 0 1-.093-.501h.002c.104.137.192.282.274.429q.123.221.228.448.015.03.028.063zm-1.208-1.617a2.05 2.05 0 0 1-.507-.854l-.002-.006a2.4 2.4 0 0 0-.605-.156l-.197-.019.079.182q.039.083.085.163c.144.257.335.494.575.668.165.12.352.208.546.27l.017-.177zm-28.83-.15a3 3 0 0 0 .42-.443c.191-.25.333-.533.435-.83.12-.351.187-.722.206-1.094v-.033l-.007.003a4 4 0 0 0-.64.286 3.4 3.4 0 0 1-.217 1.3c-.162.41-.417.78-.72 1.1l.214-.132c.093-.053.308-.158.308-.158m29.919.221q.052-.083.098-.169c.155-.292.258-.617.26-.95a2.1 2.1 0 0 0-.174-.812 3 3 0 0 0-.077-.167l-.095-.173-.106.166a2.3 2.3 0 0 0-.282.699q.082.118.145.247a2.4 2.4 0 0 1 .231 1.16M9.159 16.48q.17-.168.316-.357c.176-.228.324-.478.427-.747.112-.293.169-.604.183-.918a4 4 0 0 0-.11-1.108l-.008-.032-.007.005a4 4 0 0 0-.812.766c-.2.251-.367.53-.475.834a3 3 0 0 0-.166.89 4 4 0 0 0 0 .276q.086-.089.18-.17l.164-.138.006.01.005-.013q.135-.351.288-.696c.103-.23.212-.459.337-.681h.001q-.057.378-.151.744a15 15 0 0 1-.293 1.027l.019.047q.053.129.096.261m30.433-.153a2.04 2.04 0 0 0-.239-.894 2.1 2.1 0 0 0-.551-.623 3 3 0 0 0-.15-.108l-.167-.104-.011.196q-.002.093.002.184c.014.295.078.591.215.854q.076.148.18.28l.085-.262.017.011q-.028-.068-.054-.138a4 4 0 0 1-.156-.485c.122.123.228.256.328.39a6 6 0 0 1 .394.599zM9.086 13.71a4 4 0 0 0-.306-.66l-.017-.03-.005.007a4.2 4.2 0 0 0-.564.963 3 3 0 0 0-.218.907 3 3 0 0 0 .091.928q.061.24.152.47l.01.023-.006-.077a3.4 3.4 0 0 1 .207-1.502c.15-.38.38-.726.656-1.03m29.096 1.113a2.1 2.1 0 0 1-.768-.804s-.11-.024-.163-.03a3 3 0 0 0-.224-.016h-.084l-.157.006-.196.02q.088.138.192.264c.211.255.473.475.78.604.198.084.41.129.624.145zm.47-2.258a10 10 0 0 0-.139.74q.104.102.192.215a2.44 2.44 0 0 1 .456 1.09q.034-.09.063-.185c.093-.316.13-.656.066-.982a2.1 2.1 0 0 0-.331-.761 3 3 0 0 0-.109-.15l-.127-.15zm.183 1.907a2.04 2.04 0 0 0-.415-.84 2.1 2.1 0 0 0-.664-.503 2 2 0 0 0-.167-.076l-.185-.07.027.196q.018.09.04.18c.072.285.193.563.38.794q.153.19.353.334l.035-.21a6 6 0 0 1-.186-.275 4 4 0 0 1-.25-.445l.001-.001c.144.097.273.206.398.319a7 7 0 0 1 .518.522zM10.27 13.337c.027.117.074.351.074.351.37-.247.702-.558.937-.937a3 3 0 0 0 .343-.811 4 4 0 0 0 .129-1.083l-.001-.033-.008.003a4 4 0 0 0-.556.286q-.211.128-.404.285a3 3 0 0 0-.632.688 3 3 0 0 0-.371.856q-.024.09-.043.181l.21-.142.184-.11.027.079q.197-.296.41-.582.223-.306.478-.592l.001.001a8 8 0 0 1-.31.693q-.169.338-.354.667l-.114.198zm1.041.198.004.087q.185-.117.348-.264c.231-.208.424-.456.581-.724.18-.307.317-.641.41-.986l.002-.008h-.008a4 4 0 0 0-.635.126l-.053.015a3.3 3.3 0 0 1-.495 1.222c-.17.25-.38.473-.612.667q.133-.048.268-.086zm25.844-.247a2.2 2.2 0 0 1-.48-.398 2 2 0 0 1-.23-.312 2 2 0 0 0-.267-.02h-.059a3 3 0 0 0-.493.049h-.001q.095.133.206.253c.224.244.496.45.809.564.185.067.38.101.575.11v-.002a6 6 0 0 1-.06-.244m-26.349-2.271-.018-.128a4 4 0 0 0-.144-.607l-.003-.008-.006.005a4 4 0 0 0-.747.797c-.184.263-.333.55-.425.858-.089.3-.122.614-.114.925q.007.248.046.492l.005.026.01-.078c.073-.483.23-.959.498-1.371a3.4 3.4 0 0 1 .898-.911m27.523 1.598a1.9 1.9 0 0 0-.035-.7 2.1 2.1 0 0 0-.37-.745 3 3 0 0 0-.116-.143l-.135-.145-.062.188a2.3 2.3 0 0 0-.1.747l.004.003q.106.095.198.2a2.4 2.4 0 0 1 .508 1.048l.008.006.012-.046q.029-.21.088-.413m-1.943-1.063a3 3 0 0 0 .086.37c.087.282.223.553.42.774q.098.11.21.2l-.003-.289.047.01-.06-.083a4 4 0 0 1-.272-.431l.001-.001q.22.137.415.298t.377.333l.028.026a3 3 0 0 1 .22.097 2 2 0 0 0-.42-.71 2.1 2.1 0 0 0-.69-.467 2 2 0 0 0-.17-.068zm-1.297-.31q-.094 0-.19.009l-.246.032q.093.135.202.256c.22.248.488.459.8.578.198.075.41.113.622.123l-.085-.237a2.1 2.1 0 0 1-.715-.73l-.003-.005a1.8 1.8 0 0 0-.385-.026m-9.004.523A1.5 1.5 0 0 1 24 11.403a1.5 1.5 0 0 1-2.086.362 1.49 1.49 0 0 1-.53-1.774 1.415 1.415 0 0 0 2.616.445 1.414 1.414 0 0 0 2.615-.445 1.49 1.49 0 0 1-.53 1.774m11.285-.9a2 2 0 0 0-.037-.23 2.1 2.1 0 0 0-.357-.75 3 3 0 0 0-.113-.145l-.133-.147-.065.186a2.3 2.3 0 0 0-.113.745q.107.097.2.208c.204.247.345.542.436.849l.035.021q.016-.271.086-.532c.017-.067.061-.205.061-.205m-1.937-.624a3 3 0 0 0 .079.37c.082.284.213.558.407.782q.081.095.175.176a2 2 0 0 1-.02-.175l-.01-.205.023.004a4 4 0 0 1-.236-.394l.001-.001c.147.092.28.197.41.305q.093.08.185.163l.278.09.086.034a1.9 1.9 0 0 0-.34-.538 2.1 2.1 0 0 0-.681-.479 3 3 0 0 0-.17-.07l-.188-.064zm-22.612 1.094h.02q.217-.085.417-.204c.277-.165.521-.382.73-.628q.16-.19.295-.4.176-.27.306-.567l.004-.007-.206-.004a5 5 0 0 0-.504.036 3.3 3.3 0 0 1-.676 1.133 3.4 3.4 0 0 1-.996.724l.29-.051q.16-.024.32-.032m-.784-.155q.156-.075.304-.163c.24-.144.462-.317.653-.52.22-.237.393-.514.524-.808q.1-.226.17-.466.093-.31.135-.63l.002-.009-.009.003a4.2 4.2 0 0 0-1.036.417c-.27.157-.521.35-.73.584-.203.227-.364.49-.488.767q-.063.141-.113.287a4 4 0 0 1 .376-.157l.086-.028q.247-.27.508-.528c.18-.176.365-.35.563-.51h.001a8 8 0 0 1-.413.638q-.219.308-.451.605l-.078.097a4 4 0 0 1-.004.421m23.242-.34a2.3 2.3 0 0 1-.69-.557 2 2 0 0 1-.214-.322 2 2 0 0 0-.384-.036l-.216.005-.222.024q.09.137.195.262c.213.253.475.471.783.599q.275.11.571.136l.222.007zM12.861 8.63a4 4 0 0 0-.044-.726l-.005-.032-.007.004a4.2 4.2 0 0 0-.877.691c-.22.233-.41.497-.546.79a3 3 0 0 0-.243.873 4 4 0 0 0-.03.52l.023-.076a3.45 3.45 0 0 1 .742-1.323c.28-.3.62-.538.987-.72m22.799 1.377a2 2 0 0 0-.277-.434 2.1 2.1 0 0 0-.667-.498A3 3 0 0 0 34.548 9l-.186-.068.03.195q.016.09.04.18c.074.285.197.562.384.792q.155.187.354.33a3 3 0 0 1-.043-.32l-.11-.163a4 4 0 0 1-.252-.443l.001-.001a4 4 0 0 1 .49.396l.05.01a2.3 2.3 0 0 1 .354.1m1.914.406-.003-.003zm-1.358-.142c.073-.29.095-.596.035-.891a2.1 2.1 0 0 0-.336-.76q-.052-.075-.11-.148l-.127-.15-.07.184a2.5 2.5 0 0 0-.134.742s.135.139.193.213c.165.21.286.454.368.708q.093.048.18.102m-2.023-.74a2.3 2.3 0 0 1-.651-.465 2 2 0 0 1-.236-.298l-.003-.006-.192-.01-.046-.001a2.7 2.7 0 0 0-.58.068h-.002q.1.13.215.246c.232.236.51.433.828.536q.08.026.163.045a3 3 0 0 1 .308-.012q.119.003.237.014zm.39-.83a2 2 0 0 0-.307-.404 2.1 2.1 0 0 0-.704-.444 3 3 0 0 0-.173-.062l-.19-.054.044.192q.024.09.054.176c.096.28.24.546.446.76q.156.162.346.281l-.002-.007a3 3 0 0 1-.035-.282V8.85a5 5 0 0 1-.407-.575v-.001c.152.085.29.182.425.284l.007.006.157.033a2.4 2.4 0 0 1 .34.105m.567.289a2.06 2.06 0 0 0-.023-.953 2.1 2.1 0 0 0-.395-.732 3 3 0 0 0-.12-.139l-.14-.14-.056.19a2.5 2.5 0 0 0-.074.75q.11.09.209.197c.195.212.34.464.445.732q.078.044.154.095m-21.015-.578q-.01.152-.034.3-.008.06-.019.118.17-.132.304-.301a2.1 2.1 0 0 0 .363-.75q.025-.09.042-.18l.033-.196h-.003a3 3 0 0 0-.354.14 2.1 2.1 0 0 0-.71.53 2 2 0 0 0-.191.28l.009-.002a4 4 0 0 1 .356-.087l.054-.01c.119-.112.242-.222.378-.32q-.1.231-.227.44z" clip-rule="evenodd"/></svg>